<svg height="512" viewBox="0 0 60 60" width="512" xmlns="http://www.w3.org/2000/svg"><g id="015---Cobra-Snake" fill="none"><g id="Icons" transform="translate(1 1)"><path id="Shape" d="m38.2 10.33c-.1.1-.22.16-2.72 1.7-1.4095097.8972467-2.59892 2.1003284-3.48 3.52-.2192615.2858123-.5597797.4523702-.92.45h-4.2c-.3602203.0023702-.7007385-.1641877-.92-.45-2.07-2.83-2-2.61-6-5.1-.5443384-.3086561-.9017966-.86554599-.9557471-1.48897381s.2025252-1.2334466.6857471-1.63102619c.11-.05 3.13-2.52 4.34-3.5 2.8588498-2.45426603 7.0811502-2.45426603 9.94 0 1.29 1 4.24 3.45 4.34 3.5.4539511.37449652.7075556.93907593.6859922 1.52716971-.0215635.58809379-.3158338 1.13258445-.7959922 1.47283029z" fill="#009688"/><path id="Shape" d="m38.31 7.33c-.1-.05-3.05-2.46-4.34-3.5-1.784966-1.5224677-4.1698202-2.14171888-6.47-1.68 1.2869118.26412541 2.4889729.84111478 3.5 1.68 1.29 1 4.24 3.45 4.34 3.5.4539511.37449652.7075556.93907593.6859922 1.52716971-.0215635.58809379-.3158338 1.13258445-.7959922 1.47283029-.1.1-.22.16-2.72 1.7-1.4204102.8937101-2.6203345 2.097053-3.51 3.52-.2192615.2858123-.5597797.4523702-.92.45h3c.3602203.0023702.7007385-.1641877.92-.45.8775169-1.430569 2.0671884-2.6441706 3.48-3.55 2.5-1.54 2.62-1.6 2.72-1.7.4688954-.34120029.7552024-.87877194.7766653-1.45827166.021463-.57949971-.224294-1.13677743-.6666653-1.51172834z" fill="#00695c"/><path id="Shape" d="m35 12.36c-2.68 1.85-2.57 3.64-3.88 3.64h-4.24c-1.32 0-1.19-1.81-3.87-3.64v17.64c-9.01 0-23.01 1-23.01 13s11 15 19 15c2.6489059-.0376803 5.2481526-.7244033 7.57-2 4.8-2.58 8.43-7.28 8.43-12 0-32 .09-31.54 0-31.64zm-12 28.64c0 6-6 6-7 6s-6 0-6-5 7-6 13-6z" fill="#009688"/><path id="Shape" d="m7 42c0 5 5 5 6 5 .5117392.003435 1.0230615-.0299848 1.53-.1-1.83-.25-4.53-1.22-4.53-4.9 0-4.18 4.89-5.56 10-5.9v-.1c-6 0-13 1-13 6z" fill="#00695c"/><path id="Shape" d="m35 12.36c-1.182326.8758162-2.1983464 1.9561846-3 3.19v28.45c0 4.71-3.63 9.41-8.43 12-1.9768352 1.0909617-4.1537267 1.7712403-6.4 2h1.83c2.6489059-.0376803 5.2481526-.7244033 7.57-2 4.8-2.58 8.43-7.28 8.43-12 0-32 .09-31.54 0-31.64z" fill="#00695c"/><path id="Shape" d="m58 44c0 6-6.1 6-9.12 6-5.31 0-9.88-2.56-13.88-6v-6.64c7.4 5.33 8.59 6.64 15 6.64 5 0 4.51-4.86 5.09-7.26.1445231-.4143506.5423001-.6860652.9808374-.6699932.4385374.0160721.8153578.3161751.9291626.7399932.4978554 2.3708927.8319779 4.7732334 1 7.19z" fill="#009688"/><g fill="#00695c"><path id="Shape" d="m57 36.81c-.1138048-.4238181-.4906252-.7239211-.9291626-.7399932-.4385373-.016072-.8363143.2556426-.9808374.6699932-.21.87-.28 2.07-.53 3.24.2411406 1.3279679.3881731 2.6713112.44 4.02 0 4.88-4 5.77-7.17 5.92h1.05c3 0 9.12 0 9.12-6-.1716497-2.3899416-.505755-4.7654304-1-7.11z"/><path id="Shape" d="m47 43.86c-4-.44-5.85-2.07-12-6.5v-7.36c2 0 11.89 5 12 13.86z"/><path id="Shape" d="m45.65 49.65c-2.65 4.66-9.32 6.35-19.08 6.35 4.8-2.58 8.43-7.28 8.43-12 4.25 3.67 7.88 5.11 10.65 5.65z"/></g><path id="Shape" d="m48 9c-.0338636 2.475358-1.8740232 4.5532645-4.3271248 4.8861855-2.4531017.3329209-4.7805047-1.1793878-5.4728752-3.5561855.4801584-.34024584.7744287-.8847365.7959922-1.47283029.0215634-.58809378-.2320411-1.15267319-.6859922-1.52716971.8349997-2.2610706 3.164273-3.60459466 5.5395801-3.19522801 2.375307.40936665 4.1204686 2.45508948 4.1504199 4.86522801z" fill="#ff9801"/><path id="Shape" d="m43 4c-.5192438.00164657-1.0351913.0825795-1.53.24 2.0596705.66964388 3.4540456 2.58920559 3.4540456 4.755 0 2.1657944-1.3943751 4.0853561-3.4540456 4.755.4930846.1656861 1.0098228.2501204 1.53.25 2.7614237 0 5-2.2385763 5-5 0-2.76142375-2.2385763-5-5-5z" fill="#f57c00"/><path id="Shape" d="m52 11.12c0 7.26-5 13.26-17 18.88v-17.63c.15701-.1191097.3206023-.2292841.49-.33 2.3-1.42 2.62-1.6 2.72-1.7.6541994 2.3799537 2.9471932 3.926459 5.3988916 3.6412721 2.4516983-.2851869 4.3284857-2.3167303 4.4189267-4.7833021.090441-2.46657183-1.632527-4.63010626-4.0567562-5.09407715-2.4242292-.4639709-4.8243238.91045454-5.6510621 3.23610715-.11-.05-3.13-2.52-4.34-3.5 4.24-3.91 6.25-3.84 10.02-3.84s8 3.88 8 11.12z" fill="#ffdc00"/><path id="Shape" d="m44 0c-.86 0-1.63 0-2.36 0 3.7.4 7.36 4.24 7.36 11.08 0 6.62-4.21 12.18-14 17.37v1.55c12-5.62 17-11.62 17-18.88s-4.1-11.12-8-11.12z" fill="#fec108"/><path id="Shape" d="m23 12.36v17.64c-11.95-5.62-17-11.62-17-18.88s4.1-11.12 8-11.12 5.78-.07 10 3.83c-1.29 1-4.24 3.45-4.34 3.5-.8267383-2.32565261-3.2268329-3.70007805-5.6510621-3.23610715-2.4242292.46397089-4.14719718 2.62750532-4.05675621 5.09407715.09044101 2.4665718 1.96722841 4.4981152 4.41892671 4.7833021 2.4516984.2851869 4.7446922-1.2613184 5.3988916-3.6412721.23.16 2.75 1.67 3.23 2.03z" fill="#ffdc00"/><path id="Shape" d="m19.8 10.33c-.6541994 2.3799537-2.9471932 3.926459-5.3988916 3.6412721-2.4516983-.2851869-4.3284857-2.3167303-4.41892671-4.7833021-.09044097-2.46657183 1.63252701-4.63010626 4.05675621-5.09407715 2.4242292-.4639709 4.8243238.91045454 5.6510621 3.23610715-.4539511.37449652-.7075556.93907593-.6859922 1.52716971.0215635.58809379.3158338 1.13258445.7959922 1.47283029z" fill="#ff9801"/><path id="Shape" d="m19.69 7.33c-.7044651-1.98812357-2.580779-3.32034645-4.69-3.33-.4990536.00820331-.9942516.08905195-1.47.24 1.4704703.49252105 2.6346681 1.63092963 3.16 3.09-.4539511.37449652-.7075556.93907593-.6859922 1.52716971.0215635.58809379.3158338 1.13258445.7959922 1.47283029-.449411 1.6186063-1.6815796 2.9033676-3.28 3.42.4773317.1597873.976668.2441346 1.48.25 2.2418255-.0089118 4.2036874-1.5089188 4.8-3.67-.4801584-.34024584-.7744287-.8847365-.7959922-1.47283029-.0215634-.58809378.2320411-1.15267319.6859922-1.52716971z" fill="#f57c00"/><circle id="Oval" cx="17" cy="19" fill="#ff9801" r="2"/><circle id="Oval" cx="41" cy="19" fill="#ff9801" r="2"/></g><g id="Layer_11" fill="#000"><path id="Shape" d="m33 12c.5522847 0 1-.4477153 1-1v-.83c.3215077-.1120868.6595144-.1695479 1-.17.5522847 0 1-.44771525 1-1s-.4477153-1-1-1c-1.38 0-3 .52-3 2v1c0 .5522847.4477153 1 1 1z"/><path id="Shape" d="m26 10c.3401615.0041437.6775783.0615046 1 .17v.83c0 .5522847.4477153 1 1 1s1-.4477153 1-1v-1c0-1.48-1.62-2-3-2-.5522847 0-1 .44771525-1 1s.4477153 1 1 1z"/><path id="Shape" d="m59 37.64c-.1914111-.8988196-.9707031-1.55153-1.8891625-1.5823032-.9184595-.0307731-1.7396931.5683115-1.9908375 1.4523032-.12.49-.19 1.05-.27 1.63-.61 4.63-1.64 5.08-5.89 4.8-.57-6.73-6.44-11.37-10.27-13.14 10.42-5.36 15.31-11.33 15.31-18.68 0-7.87-4.64-12.12-9-12.12-4 0-6.09.06-10.08 3.53-2.9631962-2.03874134-6.8768038-2.03874134-9.84 0-3.88-3.37-5.93-3.53-10.08-3.53-4.36 0-9 4.25-9 12.12 0 7 4.47 12.78 14 18-7.88.27-20 2.21-20 13.88s10.33 16 20 16c2.7317477-.0357347 5.41574-.7213011 7.83-2 10.29 0 16.45-2 19.31-6.28 2.58.4 6.39.39 8.84-.58 2.5568174-.9243305 4.1953002-3.4268889 4.02-6.14-.1620682-2.4735733-.4962099-4.9328564-1-7.36zm-12.09 6c-3-.64-5.48-2.63-9.9-5.83v-5.6c2.73 1.04 9.08 5.13 9.89 11.47zm-2.1-41.64c4.75 0 7.19 5.11 7.19 10.12 0 6.69-4.79 12.2-15 17.28v-15.52l1.74-1.07c1.2636053 2.4031591 3.9835469 3.6582649 6.6320035 3.0603107 2.6484567-.5979542 4.5653-2.8999282 4.673818-5.6128778.108518-2.71294966-1.6183375-5.16067165-4.2105727-5.96825352s-5.403735.22626632-6.8552488 2.52082062l-2.46-2c3.3-2.81 5.07-2.81 8.29-2.81zm-4.33 6.16c.8625737-1.6617541 2.7624264-2.50284748 4.5725313-2.02432841 1.8101048.47851907 3.0461024 2.14860539 2.9747767 4.01953371-.0713257 1.8709283-1.4308889 3.4420636-3.2721723 3.7813802-1.8412833.3393166-3.6715844-.6439821-4.4051357-2.3665855.8179353-.9732329.8714635-2.37731791.13-3.41zm-6.36-2.74 4.51 3.64c.2529524.18637685.3918649.49005842.3674559.80330825-.0244091.31324985-.2086863.59174775-.4874559.73669175-2.61 1.61-4 2.29-5.49 4.27-.85 1.13-.78 1.13-.9 1.13h-4.24c-.39 0-1-2.06-3.82-3.82l-2.57-1.58c-.2787696-.144944-.4630468-.4234419-.4874559-.73669175-.024409-.31324983.1145035-.6169314.3674559-.80330825l4.51-3.64c2.4195314-1.89581793 5.8204686-1.89581793 8.24 0zm-14.47 6.16c-.7357153 1.7205553-2.5659536 2.7011157-4.405947 2.3605107s-3.1979562-1.9113399-3.2690343-3.7812424c-.0710782-1.86990255 1.1637257-3.5391929 2.972553-4.01849577 1.8088274-.47930286 3.7082223.35948785 4.5724283 2.01922747-.739508 1.0368965-.6860888 2.4422344.13 3.42zm-11.65.54c0-5.01 2.46-10.12 7.19-10.12 3.24 0 5 0 8.29 2.79l-2.48 1.99c-1.4515138-2.2945543-4.2630136-3.32840249-6.8552488-2.52082062s-4.3190907 3.25530386-4.21057272 5.96825352c.10851802 2.7129496 2.02536132 5.0149236 4.67381802 5.6128778 2.6484566.5979542 5.3683982-.6571516 6.6320035-3.0603107l1.76 1.1v15.52c-10.21-5.08-15-10.59-15-17.28zm-6 31.88c0-5.06 2.21-11.76 21-12v4c-8.63.17-13 2.51-13 7 0 3.81 2.55 6 7 6 5 0 8-2.62 8-7v-26.4c.4123047.4910483.7962618 1.0052169 1.15 1.54.4060243.5467472 1.0490099.8663817 1.73.86h1.12v3.7l-1.83 2.75c-.2380487.2955284-.2883109.7003343-.1297641 1.0451054.1585468.3447712.4985809.570095.8778815.5817287.3793005.0116337.7325045-.1924276.9118826-.5268341l1.17-1.75 1.17 1.75c.1793781.3344065.5325821.5384678.9118826.5268341.3793006-.0116337.7193347-.2369575.8778815-.5817287.1585468-.3447711.1082846-.749577-.1297641-1.0451054l-1.83-2.75v-3.7h1.12c.680245.0031585 1.3218559-.3157926 1.73-.86.95-1.3.82-1.14 1.15-1.54v29.4c0 6.43-7.57 13-15 13-4.22 0-18-1-18-14zm21-6v4c0 4.13-3.26 5-6 5-3.32 0-5-1.35-5-4 0-3.88 5.76-4.88 11-5zm8 17.91c2.9351929-2.2212152 4.9897756-5.4093607 5.8-9 2.4250353 1.9662385 5.2104028 3.4404452 8.2 4.34-2.35 2.8-6.88 4.32-14 4.67zm18.88-6c-4.33 0-8.55-1.77-12.88-5.41v-4.18c5.87 4.24 7.54 5.68 14 5.68 5 0 5.5-4.13 5.83-6.59.07-.54.13-1 .18-1.44.477881 2.3103892.8118568 4.6482197 1 7-.01 4.44-3.72 5.03-8.13 5.03z"/><path id="Shape" d="m18 17c-1.6568542 0-3 1.3431458-3 3s1.3431458 3 3 3 3-1.3431458 3-3-1.3431458-3-3-3zm0 4c-.5522847 0-1-.4477153-1-1s.4477153-1 1-1 1 .4477153 1 1-.4477153 1-1 1z"/><path id="Shape" d="m42 17c-1.6568542 0-3 1.3431458-3 3s1.3431458 3 3 3 3-1.3431458 3-3-1.3431458-3-3-3zm0 4c-.5522847 0-1-.4477153-1-1s.4477153-1 1-1 1 .4477153 1 1-.4477153 1-1 1z"/></g></g></svg>