<svg height="512" viewBox="0 0 58 60" width="512" xmlns="http://www.w3.org/2000/svg"><g id="014---Eagle" fill="none"><g id="Icons" transform="translate(1)"><path id="Shape" d="m46.44 49.25c-1.9710079-.1272196-3.9297776-.4013137-5.86-.82-.1444476-.0301129-.2947743.0064698-.409233.0995887-.1144586.0931188-.1808611.2328583-.180767.3804113-.168563 2.2179319-.6989028 4.3933381-1.57 6.44-.085548.1669831-.2573785.2720197-.445.2720197s-.359452-.1050366-.445-.2720197c-1.0678694-1.8818688-2.3279366-3.6479736-3.76-5.27-.1313236-.1403906-.331506-.1930594-.5149172-.1354769-.1834111.0575826-.3175677.2152184-.3450828.4054769-.71 4.37-5.48 7.51-7.25 8.53-.1460089.0813-.3229819.0842788-.4716442.0079387s-.2493563-.2219047-.2683558-.3879387c-.92-7.72-3.71-10.34-4.62-11.01-.174515-.1206353-.405485-.1206353-.58 0-2.7240449 1.901198-4.6783842 4.713886-5.51 7.93-.0503974.1800836-.197073.316992-.3801973.3548798-.1831242.0378878-.3720844-.0295788-.4898027-.1748798-1.5979015-1.7339586-2.4741402-4.0121792-2.45-6.37.0123029-.1798354-.0751248-.3519049-.2276283-.448003-.1525034-.0960981-.3454549-.1007059-.5023717-.011997-3.34074267 2.1169545-6.19095223 4.9228426-8.36 8.23-.1220415.1756789-.3423203.2542629-.54799927.1954974-.20567896-.0587654-.35119209-.2418613-.36200073-.4554974-1.32-19.66 4-34.29 5.65-37.84.05441663-.1622124.02028121-.3410617-.09005402-.4718294s-.2808895-.1945136-.44994598-.1681706l-2.49.62c-.09081996.0250071-.18798644-.0031594-.25135215-.0728617s-.08217176-.1691055-.04864785-.2571383c.83289827-1.641809 1.97753325-3.105719 3.37-4.31.16803159-.1516901.21318587-.3973497.11007866-.5988775-.1031072-.2015277-.32874952-.3086402-.55007866-.2611225l-2.46.49c-.10002198.0186398-.2013627-.0251961-.25627048-.1108523-.05490778-.0856561-.05242815-.1960435.00627048-.2791477 1.84-2.43 10.5-12.48 24.57-12.48 13.65 0 16.38 8.74 16.89 11.3-1.1338215-.1610293-2.275459-.2611729-3.42-.3-.2944552-.0135048-.5798695.1035882-.78.32-.7012358.7736844-1.0331196 1.8131004-.91 2.85.063265.4915519-.243054.9552847-.72 1.09-10.06 2.97-10.06 6.74-10.06 6.74 0 2 3 2 3 2 1.9799322-.3763832 3.9858134-.6003732 6-.67-.67 13.27 6 21.66 8.8 24 .2126372.1241692.3032162.3846672.2134876.6139734-.0897285.2293063-.3330491.3591479-.5734876.3060266z" fill="#cfd8dc"/><path id="Shape" d="m46.44 49.25c-1.9710079-.1272196-3.9297776-.4013137-5.86-.82-.1444476-.0301129-.2947743.0064698-.409233.0995887-.1144586.0931188-.1808611.2328583-.180767.3804113-.168563 2.2179319-.6989028 4.3933381-1.57 6.44-.085548.1669831-.2573785.2720197-.445.2720197s-.359452-.1050366-.445-.2720197c-1.0678694-1.8818688-2.3279366-3.6479736-3.76-5.27-.1313236-.1403906-.331506-.1930594-.5149172-.1354769-.1834111.0575826-.3175677.2152184-.3450828.4054769-.71 4.37-5.48 7.51-7.25 8.53-.1460089.0813-.3229819.0842788-.4716442.0079387s-.2493563-.2219047-.2683558-.3879387c-.92-7.72-3.71-10.34-4.62-11.01-.174515-.1206353-.405485-.1206353-.58 0-2.7240449 1.901198-4.6783842 4.713886-5.51 7.93-.0503974.1800836-.197073.316992-.3801973.3548798-.1831242.0378878-.3720844-.0295788-.4898027-.1748798-1.5979015-1.7339586-2.4741402-4.0121792-2.45-6.37.0123029-.1798354-.0751248-.3519049-.2276283-.448003-.1525034-.0960981-.3454549-.1007059-.5023717-.011997-3.34074267 2.1169545-6.19095223 4.9228426-8.36 8.23-.1220415.1756789-.3423203.2542629-.54799927.1954974-.20567896-.0587654-.35119209-.2418613-.36200073-.4554974-1.32-19.66 4-34.29 5.65-37.84.05441663-.1622124.02028121-.3410617-.09005402-.4718294s-.2808895-.1945136-.44994598-.1681706l-2.49.62c-.09081996.0250071-.18798644-.0031594-.25135215-.0728617s-.08217176-.1691055-.04864785-.2571383c.83289827-1.641809 1.97753325-3.105719 3.37-4.31.16803159-.1516901.21318587-.3973497.11007866-.5988775-.1031072-.2015277-.32874952-.3086402-.55007866-.2611225l-2.46.49c-.10002198.0186398-.2013627-.0251961-.25627048-.1108523-.05490778-.0856561-.05242815-.1960435.00627048-.2791477 1.84-2.43 10.5-12.48 24.57-12.48 13.65 0 16.38 8.74 16.89 11.3-1.1338215-.1610293-2.275459-.2611729-3.42-.3-.2944552-.0135048-.5798695.1035882-.78.32-.7012358.7736844-1.0331196 1.8131004-.91 2.85.063265.4915519-.243054.9552847-.72 1.09-10.06 2.97-10.06 6.74-10.06 6.74 0 2 3 2 3 2 1.9799322-.3763832 3.9858134-.6003732 6-.67-.67 13.27 6 21.66 8.8 24 .2126372.1241692.3032162.3846672.2134876.6139734-.0897285.2293063-.3330491.3591479-.5734876.3060266z" fill="#f5f5f5"/><path id="Shape" d="m41.83 12c.71 0 1.81.1 3.06.28-1.28-6.41-7.19-11.81-18.38-11.28 11.91.64 14.7 8.28 15.32 11z" fill="#cfd8dc"/><path id="Shape" d="m46.79 48.37c-2.79-2.37-9.47-10.77-8.79-24.04-.91 0-1.91.1-3 .23-.6 13.13 6 21.44 8.79 23.81.1875448.1538275.2343196.42172.11.63.79.11 1.65.2 2.54.25.2139853.0110651.4112337-.1154467.4904218-.3145482.079188-.1991014.0227102-.426527-.1404218-.5654518z" fill="#cfd8dc"/><path id="Shape" d="m53 29c.1202298-1.840633-.5236959-3.6494131-1.78-5-1.5-1.62-4.22-3-9.22-3-12 0-13 2-13 2s0-3.77 10.06-6.73c.476946-.1347153.783265-.5984481.72-1.09-.1231196-1.0368996.2087642-2.0763156.91-2.85.2001305-.2164118.4855448-.3335048.78-.32 3.17.1 8.3.76 10.53 3 3 2.99 5 6.99 1 13.99z" fill="#ffeb3a"/><path id="Shape" d="m52 15c-2.23-2.23-7.36-2.89-10.53-3-.202845-.0024601-.4016412.05683-.57.17 2.57.27 6.28 1 8.1 2.82 2.33 2.33 4 5.27 2.82 9.74.8675858 1.2476752 1.2838204 2.75388 1.18 4.27 4-7 2-11-1-14z" fill="#fdd834"/><path id="Shape" d="m51.22 24c-4.56 5.21-3.68-1.8-19.22 1 0 0-3 0-3-2 0 0 1-2 13-2 5 0 7.72 1.38 9.22 3z" fill="#ff9801"/><path id="Shape" d="m29 16c-1.5460297-.0128209-2.8291242-1.1984955-2.963731-2.7387075-.1346067-1.5402121.923363-2.930484 2.443731-3.2112925 1.28.56 1.79 1.35 3.43 2.23.2212858.895075.0186912 1.8421904-.5494014 2.5684118-.5680925.7262214-1.4385757 1.1508756-2.3605986 1.1515882z" fill="#d84315"/></g><g id="Layer_2" fill="#000"><path id="Shape" d="m.89 56.85c.04239663.6397142.48667716 1.1817636 1.1056193 1.3489231.61894214.1671596 1.27569942-.0775292 1.6343807-.6089231 1.92850194-2.9423123 4.39907637-5.4909406 7.28-7.51.1976273 2.2887515 1.134833 4.4509938 2.67 6.16.3593986.4240323.9238182.6145544 1.4666785.4950832.5428604-.1194712.9751464-.5293455 1.1233215-1.0650832.7565079-2.8630511 2.4586413-5.3862965 4.83-7.16 1 .84 3.15 3.44 4 10.16.0536577.5019243.3577926.9425506.8080673 1.1707167.4502748.2281662.985452.2128415 1.4219327-.0407167 1.92-1.12 6.28-4 7.51-8.25 1.1302798 1.3521365 2.1344661 2.8048594 3 4.34.2799319.5044922.8244037.8037173 1.4003459.7695874s1.0812638-.395565 1.2996541-.9295874c.8267089-1.9790114 1.3622741-4.0673785 1.59-6.2 1.7953664.3603346 3.6127101.6008654 5.44.72.6438368.037904 1.2398314-.3399943 1.480142-.9385036.2403105-.5985093.071136-1.2836346-.420142-1.7014964-3.2-2.61-8.84-10.61-8.53-22.29 5.52 0 7.16 1.68 9 1.68 1.1930193-.0875188 2.3098626-.619179 3.13-1.49.6380245 1.0035243.9425284 2.1830392.87 3.37-.0584006.4725615.2245005.9207594.6762222 1.0713334.4517218.1505739.9469614-.0382438 1.1837778-.4513334 4.58-8 1.53-12.52-1.16-15.21-1.65-1.64-4.47-2.46-7-2.88-.87-3.41-4.37-11.41-17.7-11.41-14.66 0-23.73 10.72-25.4 12.86-.32824605.4131139-.36174004.9878497-.08370332 1.4362961.27803673.4484463.80771844.6740132 1.32370332.5637039l.83-.16c-.99408089 1.0102195-1.81204976 2.1797122-2.42 3.46-.18596286.4375379-.10762467.9426899.2021221 1.303354.30974676.360664.79727322.5143955 1.2578779.396646l1.52-.38c-1.52 3.72-6.65 17.94-5.34 37.37zm32.04-32.85c-.3 0-1.4-.12-1.79-.63.86-.44 3.66-1.37 11.86-1.37 3.47 0 6.08.69 7.79 2-.460703.5332162-1.0944053.8872398-1.79 1-1.63 0-5-3-16.07-1zm21.54 1.7c-.3449602-.901618-.8726814-1.7221394-1.55-2.41v-.05c-2.12-2.15-5.43-3.24-9.92-3.24-3.4654893-.091578-6.9310444.1799016-10.34.81 2.2997436-1.6866361 4.909535-2.9031795 7.68-3.58.9498847-.273449 1.5575379-1.1998013 1.43-2.18-.0694293-.729636.1699393-1.4549957.66-2 3.57.11 8 .87 9.86 2.7 2.18 2.14 4.03 5.02 2.18 9.95zm-46-6.34c.24393363-.523735.16310938-1.1412773-.20739256-1.5845946-.37050193-.4433174-.96388681-.6324877-1.52260744-.4854054l-.78.19c.67291718-.8965198 1.42966514-1.7269334 2.26-2.48.52235797-.4493395.67141091-1.196758.36137494-1.8120966s-.99941235-.9403177-1.67137494-.7879034l-.35.07c3.21-3.47 11.03-10.47 22.44-10.47 11 0 14.47 5.9 15.54 9.14-.8-.08-1.51-.11-2-.13-.5987658-.0199194-1.1749272.2296282-1.57.68-.8800189.9886003-1.2981405 2.3047744-1.15 3.62-10.52 3.08-10.82 7.23-10.82 7.69 0 2.37 2.62 3 4 3 .32 0 2.14-.44 5-.62-.28 12.56 5.68 20.17 8.15 22.76-4.27-.43-4.64-1.11-5.55-.41-1.12.86 0 1.62-1.7 6.27-.9849583-1.6030953-2.1057411-3.1186613-3.35-4.53-.3866713-.4320925-.9877516-.6026252-1.5437261-.4379713-.5559745.164654-.9672556.6350015-1.0562739 1.2079713-.57 3.51-4.25 6.25-6.11 7.43-1-7.42-3.77-10.15-4.93-11-.5110735-.3549804-1.1889265-.3549804-1.7 0-2.6703085 1.8317555-4.6574414 4.497679-5.65 7.58-1.0899542-1.43662-1.6673297-3.1969109-1.64-5 .024678-.5431525-.2484606-1.0566246-.712658-1.3397226-.4641973-.2830979-1.0457452-.2908696-1.517342-.0202774-3.09623399 1.9212104-5.77848524 4.4402829-7.89 7.41-1.08-20.99 5.37-35.3 5.65-35.94z"/><path id="Shape" d="m22.55 13.89c.4916536.2469243 1.0904244.050313 1.34-.44.6240963-1.1459101 1.5932905-2.0661198 2.77-2.63-.8865053 1.3464463-.8781065 3.093465.0213036 4.4313255.89941 1.3378605 2.5140283 2.0050582 4.0954909 1.6923516 1.5814625-.3127065 2.8206491-1.5441941 3.1432055-3.1236771 3.62 1.13 6.12-1.64 4.63-2.63-.4588827-.3012473-1.0748175-.176275-1.38.28-.3019925.3329101-.7137907.5459092-1.16.6-.8.13-2.21-.09-4.39-1.83-1.3440526-1.24715256-3.193658-1.79463575-5-1.48-2.87.63-4.43 3.68-4.49 3.81-.2367501.481427-.051418 1.0638992.42 1.32zm9.44-1c.0301609.5474885-.1657791 1.0833496-.5419899 1.4822465s-.8996948.6258421-1.4480101.6277535c-.9758003-.0020142-1.8077001-.7079169-1.9685223-1.6703755-.1608221-.9624586.396387-1.9004745 1.3185223-2.2196245 1.01.53 1.24.96 2.65 1.8z"/><path id="Shape" d="m45 18c1.0252362-.1040098 1.9828228-.5598352 2.71-1.29.3921221-.3893608.3943607-1.0228778.005-1.415-.3893608-.3921221-1.0228778-.3943607-1.415-.005-.3520436.3620528-.8051101.6094968-1.3.71-.5522847 0-1 .4477153-1 1s.4477153 1 1 1z"/></g></g></svg>