<svg height="511pt" viewBox="-13 0 511 511.45202" width="511pt" xmlns="http://www.w3.org/2000/svg"><g fill="#fac176"><path d="m477.105469 467.902344c-.722657.003906-1.441407-.085938-2.144531-.265625-54.363282-13.886719-109.828126-23.019531-165.773438-27.300781-4.875-.34375-8.546875-4.574219-8.203125-9.453126.34375-4.875 4.574219-8.546874 9.449219-8.203124 56.96875 4.363281 113.453125 13.675781 168.808594 27.832031 4.324218 1.085937 7.160156 5.21875 6.617187 9.640625s-4.296875 7.746094-8.753906 7.75zm0 0"/><path d="m18.070312 494.386719c-3.796874 0-7.171874-2.433594-8.371093-6.035157-1.203125-3.605468.035156-7.574218 3.078125-9.855468 2.019531-1.507813 50.492187-37.191406 153.429687-51.730469 4.78125-.589844 9.152344 2.757813 9.824219 7.527344.675781 4.765625-2.597656 9.195312-7.351562 9.953125-97.976563 13.839844-144.859376 48.039062-145.3125 48.375-1.527344 1.144531-3.386719 1.765625-5.296876 1.765625zm0 0"/><path d="m450.625 503.214844c-4.195312-.003906-7.804688-2.957032-8.644531-7.0625l-8.828125-44.140625c-.679688-3.339844.625-6.777344 3.355468-8.824219l35.3125-26.484375c3.898438-2.925781 9.433594-2.132813 12.355469 1.765625 2.925781 3.898438 2.136719 9.433594-1.765625 12.359375l-30.894531 23.144531 7.757813 38.648438c.46875 2.292968.007812 4.679687-1.285157 6.632812-1.289062 1.953125-3.304687 3.316406-5.597656 3.78125-.582031.121094-1.175781.183594-1.765625.179688zm0 0"/><path d="m406.484375 494.386719c-4.191406-.003907-7.800781-2.957031-8.640625-7.0625l-8.828125-44.136719c-.570313-2.886719.335937-5.863281 2.410156-7.945312l35.308594-35.3125c3.464844-3.34375 8.972656-3.296876 12.375.109374 3.40625 3.40625 3.453125 8.910157.109375 12.375l-31.964844 31.972657 7.882813 39.40625c.46875 2.292969.007812 4.679687-1.285157 6.632812-1.289062 1.957031-3.304687 3.316407-5.601562 3.785157-.578125.121093-1.171875.179687-1.765625.175781zm0 0"/></g><path d="m185.796875 105.972656s-27.726563-79.203125-105.933594-105.683594c-1.773437-.675781-3.785156-.136718-4.984375 1.332032-1.203125 1.472656-1.328125 3.550781-.308594 5.15625 14.300782 23.382812 52.488282 106.195312 52.488282 154.421875zm0 0" fill="#cbb292"/><path d="m285.980469 103.710938s33.472656-76.941407 111.675781-103.421876c1.777344-.675781 3.789062-.136718 4.988281 1.332032 1.203125 1.472656 1.328125 3.550781.308594 5.15625-14.324219 23.382812-58.261719 103.933594-58.261719 152.160156zm0 0" fill="#cbb292"/><path d="m126.164062 154.664062s-84.371093 17.65625-117.574218-5.128906c-1.210938-.855468-2.773438-1.035156-4.144532-.476562-1.375.558594-2.371093 1.773437-2.640624 3.230468-4.917969 25.53125-5.015626 108.6875 104.542968 50.785157zm0 0" fill="#a5a5a4"/><path d="m346.960938 152.28125s88.363281 17.355469 121.960937-5.429688c1.214844-.847656 2.777344-1.019531 4.144531-.457031 1.371094.5625 2.359375 1.78125 2.628906 3.238281 4.941407 25.890626 5.214844 111.429688-104.519531 53.441407zm0 0" fill="#a5a5a4"/><path d="m282.898438 459.074219c-6.625 22.132812-21.707032 40.765625-41.972657 51.855469-1.359375.695312-2.96875.695312-4.328125 0-20.265625-11.089844-35.347656-29.722657-41.972656-51.855469zm0 0" fill="#a5a5a4"/><path d="m238.761719 473.90625c35.308593 0 70.621093-28.882812 70.621093-28.894531.796876-5.386719.933594-10.847657.40625-16.269531.300782-5.972657.777344-11.929688 1.429688-17.875 2.101562-20.5 7.117188-40.59375 14.902344-59.671876 3.988281-9.574218 8.867187-18.753906 14.5625-27.421874 5.738281-8.695313 13.191406-16.125 18.761718-24.910157 13.429688-21.214843 20.558594-45.804687 20.558594-70.910156-.109375-37.402344-15.605468-73.113281-42.851562-98.738281-26.050782-26.179688-61.457032-40.898438-98.390625-40.898438-36.933594 0-72.34375 14.71875-98.390625 40.898438-27.246094 25.625-42.742188 61.335937-42.851563 98.738281.007813 19.21875 4.132813 38.210937 12.101563 55.699219 7.558594 16.578125 21.136718 29.28125 30.308594 44.882812 10.707031 19.925782 17.785156 41.601563 20.902343 64.007813 3.585938 17.308593 6.03125 34.839843 7.308594 52.46875 0 0 35.3125 28.894531 70.621094 28.894531zm0 0" fill="#d1d4d1"/><path d="m159.3125 273.695312c-14.625 0-26.480469-11.855468-26.480469-26.480468 0-14.628906 11.855469-26.484375 26.480469-26.484375s26.484375 11.855469 26.484375 26.484375c0 14.625-11.859375 26.480468-26.484375 26.480468zm0 0" fill="#fff"/><path d="m185.796875 282.523438c-4.875 0-8.828125-3.953126-8.828125-8.828126 0-17.011718-4.34375-29.324218-12.914062-36.582031-8.566407-6.296875-19.234376-9.046875-29.777344-7.679687-3.15625.625-6.402344-.519532-8.46875-2.984375-2.070313-2.460938-2.632813-5.855469-1.472656-8.855469 1.160156-3.003906 3.859374-5.136719 7.046874-5.566406 15.660157-2.210938 31.550782 1.976562 44.085938 11.617187 12.710938 10.769531 19.15625 27.613281 19.15625 50.050781 0 4.875-3.953125 8.828126-8.828125 8.828126zm0 0" fill="#a5a5a4"/><path d="m318.210938 273.695312c-14.628907 0-26.484376-11.855468-26.484376-26.480468 0-14.628906 11.855469-26.484375 26.484376-26.484375 14.625 0 26.480468 11.855469 26.480468 26.484375 0 14.625-11.855468 26.480468-26.480468 26.480468zm0 0" fill="#fff"/><path d="m291.726562 282.523438c-4.875 0-8.828124-3.953126-8.828124-8.828126 0-22.4375 6.445312-39.28125 19.15625-50.050781 12.539062-9.636719 28.425781-13.824219 44.085937-11.617187 4.710937.890625 7.847656 5.375 7.070313 10.105468-.773438 4.726563-5.183594 7.972657-9.929688 7.3125-10.601562-1.390624-21.328125 1.390626-29.917969 7.757813-9.4375 9.683594-14.121093 23.035156-12.808593 36.492187 0 2.34375-.929688 4.585938-2.585938 6.242188s-3.898438 2.585938-6.242188 2.585938zm0 0" fill="#a5a5a4"/><path d="m221.105469 438.59375c-4.875 0-8.828125-3.949219-8.828125-8.824219.011718-.746093-.050782-1.488281-.183594-2.21875-1.648438.167969-3.253906.613281-4.75 1.316407-4.363281 2.125-9.621094.332031-11.773438-4.015626-2.15625-4.347656-.398437-9.617187 3.933594-11.804687 6.886719-3.746094 15.148438-3.972656 22.230469-.609375 5.703125 3.839844 8.847656 10.488281 8.199219 17.332031 0 4.875-3.953125 8.824219-8.828125 8.824219zm0 0" fill="#a5a5a4"/><path d="m256.417969 438.59375c-4.875 0-8.828125-3.949219-8.828125-8.824219-.648438-6.84375 2.496094-13.492187 8.199218-17.332031 7.082032-3.363281 15.34375-3.136719 22.230469.609375 4.203125 2.25 5.863281 7.433594 3.746094 11.707031-2.121094 4.273438-7.25 6.089844-11.585937 4.105469-1.5-.699219-3.105469-1.140625-4.75-1.308594-.132813.730469-.195313 1.472657-.183594 2.21875 0 4.875-3.953125 8.824219-8.828125 8.824219zm0 0" fill="#a5a5a4"/><path d="m168.140625 247.214844c0 4.875-3.953125 8.828125-8.828125 8.828125s-8.828125-3.953125-8.828125-8.828125 3.953125-8.828125 8.828125-8.828125 8.828125 3.953125 8.828125 8.828125zm0 0" fill="#2c2f38"/><path d="m327.039062 247.214844c0 4.875-3.953124 8.828125-8.828124 8.828125s-8.828126-3.953125-8.828126-8.828125 3.953126-8.828125 8.828126-8.828125 8.828124 3.953125 8.828124 8.828125zm0 0" fill="#2c2f38"/></svg>